<svg width="32" height="32" xmlns="http://www.w3.org/2000/svg">
 <g>
  <title>background</title>
  <rect x="-1" y="-1" width="3.999967" height="3.999967" id="canvas_background" fill="none"/>
 </g>

 <g>
  <title>Layer 1</title>
  <ellipse ry="1.968749" rx="2.062499" id="svg_4" cy="7.093754" cx="25.718745" stroke-opacity="null" stroke-width="null" stroke="null" fill="#00bfb3"/>
  <ellipse ry="1.968749" rx="2.062499" id="svg_6" cy="7.031254" cx="6.531255" stroke-opacity="null" stroke-width="null" stroke="null" fill="#00bfb3"/>
  <g fill="none" fill-rule="evenodd" id="svg_1">
   <path fill="#14A7DF" d="m18.726193,13.789895l-5.806641,3.618895c-0.526626,0.329738 -1.124975,-0.295839 -0.809589,-0.846429l3.461387,-6.070869c0.766359,-1.345658 2.540774,-1.575755 3.599921,-0.468412l0.002948,0.003082c1.059147,1.107343 0.839065,2.962502 -0.448025,3.763733" id="svg_2" transform="rotate(136.7570343017578 15.935089111328125,13.409603118896484) " stroke="null"/>
   <path fill="#00bfb3" d="m15.287592,15.939868l5.91,-3.523c0.536,-0.321 1.145,0.288 0.824,0.824l-3.523,5.91c-0.78,1.31 -2.586,1.534 -3.664,0.456l-0.003,-0.003c-1.078,-1.078 -0.854,-2.884 0.456,-3.664" id="svg_3" transform="rotate(40.913883209228516 18.12837600708008,16.310083389282227) "/>
   <path fill="#00A9E5" d="m16.0005,26.0005c-5.52333,0 -10,-4.47667 -10,-10c0,-5.52333 4.47667,-10 10,-10c5.52333,0 10,4.47667 10,10c0,5.52333 -4.47667,10 -10,10m0,-23c-7.17925,0 -13,5.82075 -13,13c0,7.17925 5.82075,13 13,13c7.17925,0 13,-5.82075 13,-13c0,-7.17925 -5.82075,-13 -13,-13" id="svg_5"/>
  </g>
 </g>
</svg>
