<?xml version="1.0" encoding="UTF-8" standalone="no"?>
<svg
   xmlns:dc="http://purl.org/dc/elements/1.1/"
   xmlns:cc="http://creativecommons.org/ns#"
   xmlns:rdf="http://www.w3.org/1999/02/22-rdf-syntax-ns#"
   xmlns:svg="http://www.w3.org/2000/svg"
   xmlns="http://www.w3.org/2000/svg"
   xmlns:sodipodi="http://sodipodi.sourceforge.net/DTD/sodipodi-0.dtd"
   xmlns:inkscape="http://www.inkscape.org/namespaces/inkscape"
   width="53.19688"
   height="42.708916"
   id="svg3937"
   version="1.1"
   inkscape:version="0.91 r13725"
   sodipodi:docname="sentinl.svg">
  <metadata
     id="metadata3962">
    <rdf:RDF>
      <cc:Work
         rdf:about="">
        <dc:format>image/svg+xml</dc:format>
        <dc:type
           rdf:resource="http://purl.org/dc/dcmitype/StillImage" />
        <dc:title>SENTINL Small Logo</dc:title>
      </cc:Work>
    </rdf:RDF>
  </metadata>
  <defs
     id="defs3960" />
  <sodipodi:namedview
     pagecolor="#ffffff"
     bordercolor="#666666"
     borderopacity="1"
     objecttolerance="10"
     gridtolerance="10"
     guidetolerance="10"
     inkscape:pageopacity="0"
     inkscape:pageshadow="2"
     inkscape:window-width="640"
     inkscape:window-height="480"
     id="namedview3958"
     showgrid="false"
     fit-margin-top="0"
     fit-margin-left="0"
     fit-margin-right="0"
     fit-margin-bottom="0"
     inkscape:zoom="5.2444444"
     inkscape:cx="18.426436"
     inkscape:cy="21.234516"
     inkscape:window-x="261"
     inkscape:window-y="87"
     inkscape:window-maximized="0"
     inkscape:current-layer="svg3937" />
  <!-- QXIP BV http://qxip.net -->
  <title
     id="title3939">SENTINL Small Logo</title>
  <g
     id="g3941"
     transform="translate(5.2696566,-1.025605)">
    <title
       id="title3943">Layer 1</title>
    <g
       id="svg_118"
       stroke="null">
      <path
         id="svg_2"
         d="m 20.35579,28.869685 c -0.38594,0 -0.76433,-0.15806 -1.03722,-0.43297 l 0,0 c -0.27309,-0.27534 -0.42978,-0.65612 -0.42978,-1.04493 l 0,0 0,-15.0835 c 0,-0.81672 0.65673,-1.47791 1.467,-1.47791 l 0,0 c 0.81005,0 1.46699,0.66119 1.46699,1.47791 l 0,0 0,13.60518 8.37406,0 0,0 c 0.81089,0 1.4672,0.66161 1.4672,1.47832 l 0,0 c 0,0.81587 -0.65631,1.4779 -1.4672,1.4779 l 0,0 -9.84105,0 0,0 z"
         stroke="null"
         inkscape:connector-curvature="0"
         style="fill:#ffffff" />
    </g>
    <g
       id="svg_120"
       stroke="null">
      <g
         id="svg_4"
         stroke="null">
        <g
           id="svg_5"
           stroke="null">
          <circle
             id="svg_6"
             cx="32.76292"
             cy="7.7837148"
             r="3.035198"
             stroke="null"
             style="fill:#ffffff" />
        </g>
        <g
           id="svg_7"
           stroke="null">
          <circle
             id="svg_8"
             cx="8.9382544"
             cy="7.7837148"
             r="3.035198"
             stroke="null"
             style="fill:#ffffff" />
        </g>
      </g>
      <rect
         id="svg_9"
         x="19.005205"
         y="1.7047549"
         width="3.6909709"
         height="5.5663228"
         stroke="null"
         style="fill:#ffffff" />
      <path
         id="svg_10"
         d="m 25.10348,2.843295 c 0,0.71718 -0.57702,1.2985 -1.28892,1.2985 l -5.92795,0 c -0.71189,0 -1.28892,-0.58132 -1.28892,-1.2985 l 0,-0.51919 c 0,-0.71719 0.57703,-1.2985 1.28892,-1.2985 l 5.92816,0 c 0.7119,0 1.28892,0.58131 1.28892,1.2985 l 0,0.51919 -2.1e-4,0 z"
         stroke="null"
         inkscape:connector-curvature="0"
         style="fill:#ffffff" />
      <path
         id="svg_11"
         d="m 32.84472,41.034795 -2.58034,-2.14733 c -0.99883,0.56588 -2.0545,1.04006 -3.15653,1.41514 l 3.76711,3.13457 c 0.54871,0.45643 1.36107,0.37888 1.81434,-0.17412 l 0.32826,-0.40043 c 0.45327,-0.55237 0.37608,-1.37098 -0.17284,-1.82783 z"
         stroke="null"
         inkscape:connector-curvature="0"
         style="fill:#ffffff" />
      <path
         id="svg_12"
         d="m 8.85645,41.034795 c -0.54891,0.45685 -0.6261,1.27525 -0.17304,1.82783 l 0.32805,0.40043 c 0.45348,0.553 1.26584,0.63055 1.81454,0.17412 l 3.93596,-3.27531 c -1.07958,-0.39578 -2.11071,-0.89193 -3.08668,-1.47261 l -2.81883,2.34554 z"
         stroke="null"
         inkscape:connector-curvature="0"
         style="fill:#ffffff" />
      <path
         id="svg_13"
         d="m 20.85059,5.329775 c -6.90917,6.3e-4 -12.93529,3.78794 -16.15726,9.41195 l 3.37614,0 c 0.48515,-0.67049 1.01854,-1.30336 1.59997,-1.88953 2.86602,-2.88502 6.81016,-4.6653 11.18135,-4.66551 4.37057,2.1e-4 8.31491,1.78049 11.18073,4.66551 2.86372,2.88712 4.63044,6.86038 4.63149,11.26429 -10e-4,4.40327 -1.76777,8.37653 -4.63149,11.26344 -2.86582,2.88523 -6.81016,4.66572 -11.18073,4.66572 -4.37119,0 -8.31533,-1.78049 -11.18135,-4.66572 -1.25787,-1.26828 -2.30368,-2.7466 -3.08165,-4.37897 l -3.08626,0 c 2.72654,6.96836 9.46308,11.90055 17.34927,11.90139 10.29935,-8.4e-4 18.64677,-8.40992 18.64761,-18.78586 -10e-4,-10.37658 -8.34868,-18.78587 -18.64782,-18.78671 z"
         stroke="null"
         inkscape:connector-curvature="0"
         style="fill:#ffffff" />
    </g>
  </g>
</svg>
