<?xml version="1.0" encoding="UTF-8" standalone="no"?>
<!-- Creator: CorelDRAW X6 -->

<svg
   xmlns:dc="http://purl.org/dc/elements/1.1/"
   xmlns:cc="http://creativecommons.org/ns#"
   xmlns:rdf="http://www.w3.org/1999/02/22-rdf-syntax-ns#"
   xmlns:svg="http://www.w3.org/2000/svg"
   xmlns="http://www.w3.org/2000/svg"
   xmlns:sodipodi="http://sodipodi.sourceforge.net/DTD/sodipodi-0.dtd"
   xmlns:inkscape="http://www.inkscape.org/namespaces/inkscape"
   xml:space="preserve"
   width="277.99921"
   height="81.666718"
   version="1.1"
   style="clip-rule:evenodd;fill-rule:evenodd;image-rendering:optimizeQuality;shape-rendering:geometricPrecision;text-rendering:geometricPrecision"
   viewBox="0 0 2895.75 850.75"
   id="svg511"
   sodipodi:docname="siren-alert-logo.svg"
   inkscape:version="0.92.1 r15371"><metadata
     id="metadata515"><rdf:RDF><cc:Work
         rdf:about=""><dc:format>image/svg+xml</dc:format><dc:type
           rdf:resource="http://purl.org/dc/dcmitype/StillImage" /><dc:title></dc:title></cc:Work></rdf:RDF></metadata><sodipodi:namedview
     pagecolor="#ffffff"
     bordercolor="#666666"
     borderopacity="1"
     objecttolerance="10"
     gridtolerance="10"
     guidetolerance="10"
     inkscape:pageopacity="0"
     inkscape:pageshadow="2"
     inkscape:window-width="1253"
     inkscape:window-height="884"
     id="namedview513"
     showgrid="false"
     units="px"
     inkscape:zoom="0.81393823"
     inkscape:cx="516.9623"
     inkscape:cy="25.169251"
     inkscape:window-x="0"
     inkscape:window-y="27"
     inkscape:window-maximized="0"
     inkscape:current-layer="svg511" /><defs
     id="defs483"><style
       type="text/css"
       id="style481"><![CDATA[
    .fil2 {fill:#9A9B9C;fill-rule:nonzero}
    .fil0 {fill:#B4B6B5;fill-rule:nonzero}
    .fil1 {fill:#FBB247;fill-rule:nonzero}
   ]]></style></defs><g
     id="Layer_x0020_1"
     transform="matrix(0.24902002,0,0,0.24448282,0.75097998,18.77503)"><metadata
       id="CorelCorpID_0Corel-Layer" /><path
       class="fil0"
       d="m 3256,1040 h 4 l -28,-50 -9,-18 h -1 c -7,-34 -15,-34 -22,-48 -30,-55 -63,-121 -100,-172 l -10,-17 H 1989 c -238,0 -477,83 -650,229 -184,155 -289,367 -289,597 v 239 c -51,41 -83,106 -83,178 0,125 103,226 228,226 125,0 223,-101 223,-226 0,-67 -29,-127 -79,-169 v -249 c 0,-336 335,-521 651,-521 h 945 c 130,220 188,432 188,667 0,789 -637,1427 -1419,1427 -279,0 -539,-67 -755,-199 H 497 l 26,23 c 304,293 713,446 1181,446 455,0 883,-176 1205,-493 322,-318 500,-736 500,-1189 0,-240 -50,-461 -153,-681 z"
       id="path486"
       inkscape:connector-curvature="0"
       style="fill:#b4b6b5;fill-rule:nonzero" /><path
       class="fil1"
       d="m 2088,1306 c -125,0 -235,101 -235,226 0,72 45,137 79,178 v 68 c 0,319 -181,651 -513,651 H 474 C 353,2209 286,1951 286,1697 286,925 923,296 1705,296 c 274,0 536,83 764,238 h 446 l -11,-12 C 2584,192 2170,6 1735,-2 h -53 C 753,11 1,776 1,1713 c 0,249 53,495 153,716 h -5 l 28,50 9,18 h 1 c 7,0 15,25 22,39 30,55 63,117 100,168 l 10,13 h 1101 c 230,0 440,-103 594,-290 143,-174 225,-411 225,-650 v -77 c 34,-41 77,-102 77,-169 0,-125 -101,-226 -226,-226 z"
       id="path488"
       inkscape:connector-curvature="0"
       style="fill:#fbb247;fill-rule:nonzero" /><path
       class="fil1"
       d="m 5010,857 c -50,-83 -186,-162 -344,-162 -203,0 -300,85 -300,193 0,126 149,162 323,182 302,37 584,116 584,462 0,323 -286,462 -609,462 -296,0 -524,-91 -632,-356 l 228,-118 c 64,160 232,230 408,230 172,0 334,-60 334,-218 0,-137 -143,-193 -336,-213 -296,-35 -570,-114 -570,-439 0,-298 294,-421 561,-423 226,0 460,64 570,288 l -218,112 z"
       id="path490"
       inkscape:connector-curvature="0"
       style="fill:#fbb247;fill-rule:nonzero" /><polygon
       class="fil1"
       points="5899,1957 6170,1957 6170,507 5899,507 "
       id="polygon492"
       style="fill:#fbb247;fill-rule:nonzero" /><path
       class="fil1"
       d="m 7115,762 v 464 h 416 c 174,0 249,-116 249,-232 0,-116 -77,-232 -249,-232 z m 1011,1195 h -325 l -423,-485 h -263 v 485 H 6842 V 505 c 230,0 460,2 690,2 342,2 522,230 522,481 0,199 -91,400 -367,456 l 439,495 v 19 z"
       id="path494"
       inkscape:connector-curvature="0"
       style="fill:#fbb247;fill-rule:nonzero" /><path
       class="fil1"
       d="M 9731,1957 H 8645 c 0,-483 0,-967 0,-1450 h 1086 v 265 h -814 v 334 h 785 v 255 h -785 v 327 h 814 z"
       id="path496"
       inkscape:connector-curvature="0"
       style="fill:#fbb247;fill-rule:nonzero" /><polygon
       class="fil1"
       points="10657,980 10657,1957 10384,1957 10384,507 10606,507 11316,1406 11316,505 11590,505 11590,1957 11420,1957 11420,1960 "
       id="polygon498"
       style="fill:#fbb247;fill-rule:nonzero" /><path
       class="fil2"
       d="m 4385,2376 -162,369 h 324 z m 48,-86 307,683 h -92 l -67,-150 h -391 l -66,150 h -93 l 307,-683 h 96 z"
       id="path500"
       inkscape:connector-curvature="0"
       style="fill:#9a9b9c;fill-rule:nonzero" /><polygon
       class="fil2"
       points="5076,2290 5161,2290 5161,2894 5533,2894 5533,2974 5076,2974 "
       id="polygon502"
       style="fill:#9a9b9c;fill-rule:nonzero" /><polygon
       class="fil2"
       points="5955,2582 6335,2582 6335,2661 5955,2661 5955,2892 6367,2892 6367,2974 5871,2974 5871,2290 6351,2290 6351,2368 5955,2368 "
       id="polygon504"
       style="fill:#9a9b9c;fill-rule:nonzero" /><path
       class="fil2"
       d="m 7193,2511 c 1,-68 -48,-144 -146,-144 h -226 v 285 h 222 c 103,0 150,-63 150,-141 z m -206,217 h -166 v 246 h -85 v -683 h 310 c 154,0 231,107 231,219 1,104 -56,200 -196,212 l 226,253 h -107 l -213,-246 z"
       id="path506"
       inkscape:connector-curvature="0"
       style="fill:#9a9b9c;fill-rule:nonzero" /><polygon
       class="fil2"
       points="7575,2366 7575,2290 8126,2290 8126,2366 7892,2366 7892,2974 7808,2974 7808,2366 "
       id="polygon508"
       style="fill:#9a9b9c;fill-rule:nonzero" /></g></svg>