<svg xmlns="http://www.w3.org/2000/svg" xmlns:xlink="http://www.w3.org/1999/xlink" enable-background="new 0 0 32 32" height="32" version="1.1" width="32" xml:space="preserve"><rect id="backgroundrect" width="100%" height="100%" x="0" y="0" fill="none" stroke="none"/><g class="currentLayer"><title>Layer 1</title><g id="clock" class="" fill="#ffffff" fill-opacity="1"><circle cx="15.783152432391475" cy="11.536697121075349" fill="#ffffff" r="0.5407775044441223" id="svg_1" fill-opacity="1"/><circle cx="15.783152432391475" cy="20.09632976019543" fill="#ffffff" r="0.5407775044441223" id="svg_2" fill-opacity="1"/><circle cx="11.234361622872747" cy="15.81651344063539" fill="#ffffff" r="0.5407775044441223" id="svg_3" fill-opacity="1"/><circle cx="20.331943241910203" cy="15.81651344063539" fill="#ffffff" r="0.5407775044441223" id="svg_4" fill-opacity="1"/><circle cx="12.5663991751238" cy="18.842343992161496" fill="#ffffff" r="0.5407775044441223" id="svg_5" fill-opacity="1"/><circle cx="12.5663991751238" cy="12.789969978218243" fill="#ffffff" r="0.5407775044441223" id="svg_6" fill-opacity="1"/><circle cx="18.9991479743118" cy="18.842343992161496" fill="#ffffff" r="0.5407775044441223" id="svg_7" fill-opacity="1"/><path d="M23.364470448256025,14.389908000782043 c-0.05306922611105186,0 -0.0977990024046528,0.023538989757580273 -0.1493519649125317,0.028532108797066948 c-0.2638298669520869,-1.2447132462720454 -0.8870142078561519,-2.3581787920775823 -1.7414287482440867,-3.276912695343138 L20.385012468021255,5.5692065661688 C20.252339402743626,4.893708890398239 19.625364402831625,4.403669921808614 18.894525346102284,4.403669921808614 h-6.065054412691637 c-0.730839056729343,0 -1.357055924839754,0.490752271309552 -1.4912452537205567,1.1662499470801115 l-1.0613845222210365,5.384722232726458 C9.003179730803812,12.22931406212415 8.201834416526928,13.92768783826956 8.201834416526928,15.81651344063539 c0,1.8424609255705977 0.7687456468086658,3.4987498412403335 1.9870634519580976,4.763435563670326 l1.0704821038400738,5.483871310796266 C11.392811169404316,26.738604688152616 12.019786169316314,27.229356959462166 12.750625226045656,27.229356959462166 h6.065054412691637 c0.7300809249277556,0 1.3562977930381674,-0.490752271309552 1.4912452537205567,-1.1662499470801115 l1.0795796854591113,-5.479591494476706 c0.9014187120862945,-0.9351398658238689 1.5564445886569915,-2.0828439421858866 1.8286139054265287,-3.3703553516535316 C23.266671445851365,17.219579890731154 23.31140122214497,17.243118880488737 23.364470448256025,17.243118880488737 c0.8369775089514455,0 1.5162636031729093,-0.6391192370543004 1.5162636031729093,-1.426605439853347 C24.88073405142893,15.028313935116415 24.201447957207467,14.389908000782043 23.364470448256025,14.389908000782043 zM12.829470933410647,5.830275361661961 h6.065054412691637 l0.7581318015864553,3.84256175224499 C18.532896476745545,9.060110077489938 17.25089560026285,8.683486241368655 15.861998139756466,8.683486241368655 c-1.3881393287047985,0 -2.670898336989081,0.3766238361212838 -3.7906590079322733,0.989350872538297 L12.829470933410647,5.830275361661961 zM18.815679638737294,25.80275151960882 h-6.065054412691637 l-0.7581318015864553,-3.84256175224499 C13.11149596360081,22.572203501060915 14.39425497188509,22.949540639902125 15.783152432391475,22.949540639902125 c1.3881393287047985,0 2.6716564687906663,-0.37733713884121034 3.7906590079322733,-0.989350872538297 L18.815679638737294,25.80275151960882 zM15.783152432391475,21.522935200048778 c-3.344119376797851,0 -6.065054412691637,-2.5607567645367575 -6.065054412691637,-5.706421759413388 c0,-3.1463782975965566 2.720935035893786,-5.706421759413388 6.065054412691637,-5.706421759413388 c3.344119376797851,0 6.065054412691637,2.5600434618168313 6.065054412691637,5.706421759413388 C21.848206845083112,18.96217843551202 19.12651367738774,21.522935200048778 15.783152432391475,21.522935200048778 z" fill="#ffffff" id="svg_8" fill-opacity="1"/><path d="M19.529081664030148,12.268545711720115 c-0.09173394799196115,-0.08630962911112752 -0.2395696493013199,-0.09344265631039426 -0.34343370611866436,-0.014979357118460162 l-3.9362203138368725,3.0565021548857962 C15.104624469971597,15.447022631713372 15.02502063080502,15.628201522574749 15.02502063080502,15.822219862394803 c0,0.1875986153407152 0.0773294437618185,0.3652109926024574 0.21910009065848565,0.4978852985088188 s0.3320617290948677,0.2068577887787354 0.5359991837216235,0.2082843942185887 c0.18953295039661378,-0.0014266054398533487 0.38664721880909214,-0.06776375839303417 0.5299341293089319,-0.1975848534196887 l1.4010275693317684,-1.5870985518368486 l1.8392277506487393,-2.154887516898481 C19.629913193641148,12.493949371216946 19.62081561202211,12.354855340831245 19.529081664030148,12.268545711720115 z" fill="#ffffff" id="svg_9" fill-opacity="1"/></g></g></svg>
