<?xml version="1.0"?>
<svg width="252" height="45" xmlns="http://www.w3.org/2000/svg" xmlns:svg="http://www.w3.org/2000/svg" xmlns:xlink="http://www.w3.org/1999/xlink">
 <metadata id="metadata4270">image/svg+xml</metadata>
 <defs>
  <symbol id="svg_13" xmlns:svg="http://www.w3.org/2000/svg" xmlns="http://www.w3.org/2000/svg">
   <metadata id="svg_12">image/svg+xml</metadata>
   <g id="svg_3">
    <path d="m391.57555,224.85165c-9.78316,0 -17.65254,6.79591 -17.65254,15.24453l0,175.13862c0,8.44863 7.86938,15.24453 17.65254,15.24453l148.46868,0c9.78316,0 17.65254,-6.7959 17.65254,-15.24453l0,-175.13862c0,-8.44862 -7.86938,-15.24453 -17.65254,-15.24453l-148.46868,0zm9.14182,13.72503l128.96102,0c8.49808,0 15.3384,5.90723 15.3384,13.24606l0,152.11493c0,7.33884 -6.84032,13.24606 -15.3384,13.24606l-128.96102,0c-8.49806,0 -15.33838,-5.90722 -15.33838,-13.24606l0,-152.11493c0,-7.33883 6.84032,-13.24606 15.33838,-13.24606z" id="svg_11" fill-rule="nonzero" fill="#000000"/>
    <path d="m412.14824,81.36223l107.46774,0l15.15571,140.53475l-140.53474,0l17.91129,-140.53475z" id="svg_10" fill-rule="nonzero" fill="#000000"/>
    <path id="svg_9" d="m412.14824,575.45281l107.46774,0l15.15571,-140.53475l-140.53474,0l17.91129,140.53475z" fill-rule="nonzero" fill="#000000"/>
    <rect id="svg_8" width="13.313818" height="21.54221" x="551.78381" y="279.59021" ry="6.656909" fill-rule="nonzero" fill="#000000"/>
    <rect ry="6.656909" y="356.51447" x="551.78381" height="21.54221" width="13.313818" id="svg_7" fill-rule="nonzero" fill="#000000"/>
    <rect id="svg_6" width="4.888165" height="73.965652" x="458.58704" y="313.61438" ry="1.607949" fill-rule="nonzero" fill="#000000"/>
    <rect ry="1.736585" y="92.283202" x="-556.82631" height="79.882904" width="4.888165" id="svg_5" transform="matrix(-0.69129326,-0.72257431,0.72257431,-0.69129326,0,0) " fill-rule="nonzero" fill="#000000"/>
    <path id="svg_4" d="m467.05343,326.727603a6.27619,6.27619 0 1 1 -12.55239,0a6.27619,6.27619 0 1 1 12.55239,0z" fill-rule="nonzero" fill="#000000"/>
   </g>
  </symbol>
 </defs>
 <!-- &quot;Helvetica Neue&quot; is a trademark of Heidelberger Druckmaschinen AG, which may be registered in certain jurisdictions, exclusivly licensed through Linotype Library GmbH, a wholly owned subsidiary of Heidelberger Druckmaschinen AG. -->
 <g>
  <title>Layer 1</title>
  <rect fill="#011010" width="252" height="45" id="rect4248"/>
  <rect x="0" y="14.634944" fill="#ff0000" width="7.032375" height="27.379944" id="rect4250"/>
  <rect x="6.760773" fill="#ff7f00" width="8.614355" height="31.176471" id="rect4252" y="7.693037"/>
  <rect x="15.376963" fill="#F2BB1A" width="11.764864" height="33.327253" id="rect4254" y="1.488834"/>
  <rect x="26.676949" fill="#3BBEB1" width="7.390752" height="21.064147" id="rect4256" y="8.501678"/>
  <rect x="33.995066" fill="#e5862d" width="6.270031" height="18.977035" id="rect4258" y="14.705881"/>
  <g id="text4264" fill="#ffffff" font-family="HelveticaNeue-Bold" font-size="64.999474px"/>
  <use id="svg_14" xlink:href="#svg_13" transform="matrix(0.0538787879049778,0,0,0.0538787879049778,0,0) " y="0" x="0"/>
  <use id="svg_16" xlink:href="#svg_13" transform="matrix(0.0538787879049778,0,0,0.0538787879049778,0,0) " y="0" x="0"/>
  <rect x="40.059674" fill="#7f00ff" width="6.072185" height="17.027407" y="19.850232" id="svg_19"/>
  <rect id="svg_17" x="45.857539" fill="#0000ff" width="6.270031" height="24.579277" y="14.418698"/>
  <rect id="svg_20" x="51.996926" fill="#007fff" width="7.390752" height="27.843137" y="9.256523"/>
  <rect id="svg_21" x="59.136637" fill="#F2BB1A" width="12.962469" height="26.19517" y="9.676324"/>
  <rect id="svg_22" x="69.956131" fill="#ff7f00" width="10.953897" height="28.695081" y="8.518463"/>
  <rect id="svg_23" x="85.853149" y="17.693865" fill="#ffffff" width="29.818695" height="11.825713"/>
  <text fill="#ffffff" stroke-width="0" stroke-dasharray="null" stroke-linejoin="null" stroke-linecap="null" x="87.139365" y="18.664017" id="svg_1" font-size="24" font-family="Fantasy" text-anchor="middle" xml:space="preserve" transform="matrix(2.5817727338465604,0,0,2.404619455516475,-56.809583631966255,0.4586496577297814) " font-weight="normal" font-style="normal">KAAE</text>
  <path fill="#e0e0e0" stroke-width="null" stroke-dasharray="null" stroke-linejoin="null" stroke-linecap="null" d="m166.98002,30.145879l-2.99416,-6.6356c-0.90269,-2.00021 -2.37917,-5.2744 -3.28186,-7.27461l-2.99416,-6.63561c-0.90348,-2.00123 -2.37996,-2.00123 -3.28265,0l-2.99337,6.63561c-0.90269,2.00021 -2.37996,5.27541 -3.28265,7.27461l-2.99337,6.6356c-0.90269,2.00225 -0.16406,3.63833 1.64132,3.63833l18.53799,0c1.80696,0 2.54481,-1.63608 1.64291,-3.63833zm-10.05637,1.0275l-1.77605,0l0,-2.18178l1.77605,0l0,2.18178zm-0.08559,-3.78946l-1.60329,0l-0.15929,-9.33569l1.90761,0l-0.14503,9.33569z" id="svg_25"/>
  <rect id="svg_24" x="78.953116" fill="#ff0000" width="7.467967" height="22.640802" y="11.738054"/>
  <path fill="#ffffff" stroke-width="null" stroke-dasharray="null" stroke-linejoin="null" stroke-linecap="null" d="m73.901405,11.25206c-0.62384,0 -1.12696,0.50085 -1.12696,1.11797l0,10.30884l-6.82043,2.95592c-0.57082,0.24819 -0.83028,0.90779 -0.57984,1.47349c0.185,0.41924 0.59789,0.66966 1.0322,0.66966c0.15116,0 0.30571,-0.03018 0.45236,-0.09503l7.47473,-3.23988c0.00564,-0.00224 0.01015,-0.00447 0.01466,-0.00671l0.00451,-0.00224c0.01692,-0.0067 0.02595,-0.02236 0.04174,-0.02795c0.11732,-0.05813 0.22675,-0.12633 0.31474,-0.218c0.03835,-0.03801 0.05979,-0.0872 0.08912,-0.1308c0.05415,-0.07155 0.11394,-0.14199 0.14665,-0.22807c0.02707,-0.06708 0.02933,-0.13975 0.04287,-0.2113c0.01466,-0.07155 0.04286,-0.13527 0.04286,-0.20794l0,-11.0411c0,-0.61601 -0.50538,-1.11686 -1.12921,-1.11686zm17.62753,1.90838c0,-4.28407 -3.50272,-7.7565 -7.82669,-7.7565c-2.18623,0 -4.15813,0.88991 -5.57276,2.32203c-1.35032,-0.35663 -2.76269,-0.56457 -4.22695,-0.56457c-1.50487,0 -2.9556,0.218 -4.33976,0.59364c-1.42027,-1.44777 -3.40232,-2.3511 -5.60097,-2.3511c-4.32284,0 -7.82669,3.47243 -7.82669,7.7565c0,2.06266 0.819,3.93191 2.1445,5.32155c-0.49974,1.55399 -0.77274,3.20859 -0.77274,4.92803c0,8.97397 7.34048,16.24862 16.39566,16.24862c9.05517,0 16.39566,-7.27465 16.39566,-16.24862c0,-1.76081 -0.29218,-3.45118 -0.81449,-5.03982c1.26798,-1.37623 2.04523,-3.20076 2.04523,-5.20976zm-17.6264,23.14316c-7.17578,0 -13.01139,-5.78439 -13.01139,-12.89358c0,-7.11031 5.83561,-12.8947 13.01139,-12.8947c7.17578,0 13.01026,5.78327 13.01026,12.8947c0,7.11143 -5.83674,12.89358 -13.01026,12.89358z" id="svg_18"/>
 </g>
</svg>