<svg width="45" height="45" xmlns="http://www.w3.org/2000/svg" xmlns:svg="http://www.w3.org/2000/svg">
 <!-- QXIP BV http://qxip.net -->
 <title>SENTINL Small Logo</title>
 <g>
  <title>Layer 1</title>
  <g id="svg_118" stroke="null">
   <path id="svg_2" fill="#ff7f00" d="m20.35579,28.869685c-0.38594,0 -0.76433,-0.15806 -1.03722,-0.43297l0,0c-0.27309,-0.27534 -0.42978,-0.65612 -0.42978,-1.04493l0,0l0,-15.0835c0,-0.81672 0.65673,-1.47791 1.467,-1.47791l0,0c0.81005,0 1.46699,0.66119 1.46699,1.47791l0,0l0,13.60518l8.37406,0l0,0c0.81089,0 1.4672,0.66161 1.4672,1.47832l0,0c0,0.81587 -0.65631,1.4779 -1.4672,1.4779l0,0l-9.84105,0l0,0z" stroke="null"/>
  </g>
  <g id="svg_120" stroke="null">
   <g id="svg_4" stroke="null">
    <g id="svg_5" stroke="null">
     <circle id="svg_6" fill="#7f7f7f" cx="32.76292" cy="7.783715" r="3.035198" stroke="null"/>
    </g>
    <g id="svg_7" stroke="null">
     <circle id="svg_8" fill="#7f7f7f" cx="8.938254" cy="7.783715" r="3.035198" stroke="null"/>
    </g>
   </g>
   <rect id="svg_9" x="19.005206" y="1.704755" fill="#7f7f7f" width="3.690971" height="5.566323" stroke="null"/>
   <path id="svg_10" fill="#7f7f7f" d="m25.10348,2.843295c0,0.71718 -0.57702,1.2985 -1.28892,1.2985l-5.92795,0c-0.71189,0 -1.28892,-0.58132 -1.28892,-1.2985l0,-0.51919c0,-0.71719 0.57703,-1.2985 1.28892,-1.2985l5.92816,0c0.7119,0 1.28892,0.58131 1.28892,1.2985l0,0.51919l-0.00021,0z" stroke="null"/>
   <path id="svg_11" fill="#7f7f7f" d="m32.84472,41.034795l-2.58034,-2.14733c-0.99883,0.56588 -2.0545,1.04006 -3.15653,1.41514l3.76711,3.13457c0.54871,0.45643 1.36107,0.37888 1.81434,-0.17412l0.32826,-0.40043c0.45327,-0.55237 0.37608,-1.37098 -0.17284,-1.82783z" stroke="null"/>
   <path id="svg_12" fill="#7f7f7f" d="m8.85645,41.034795c-0.54891,0.45685 -0.6261,1.27525 -0.17304,1.82783l0.32805,0.40043c0.45348,0.553 1.26584,0.63055 1.81454,0.17412l3.93596,-3.27531c-1.07958,-0.39578 -2.11071,-0.89193 -3.08668,-1.47261l-2.81883,2.34554z" stroke="null"/>
   <path id="svg_13" fill="#7f7f7f" d="m20.85059,5.329775c-6.90917,0.00063 -12.93529,3.78794 -16.15726,9.41195l3.37614,0c0.48515,-0.67049 1.01854,-1.30336 1.59997,-1.88953c2.86602,-2.88502 6.81016,-4.6653 11.18135,-4.66551c4.37057,0.00021 8.31491,1.78049 11.18073,4.66551c2.86372,2.88712 4.63044,6.86038 4.63149,11.26429c-0.00105,4.40327 -1.76777,8.37653 -4.63149,11.26344c-2.86582,2.88523 -6.81016,4.66572 -11.18073,4.66572c-4.37119,0 -8.31533,-1.78049 -11.18135,-4.66572c-1.25787,-1.26828 -2.30368,-2.7466 -3.08165,-4.37897l-3.08626,0c2.72654,6.96836 9.46308,11.90055 17.34927,11.90139c10.29935,-0.00084 18.64677,-8.40992 18.64761,-18.78586c-0.00105,-10.37658 -8.34868,-18.78587 -18.64782,-18.78671z" stroke="null"/>
  </g>
 </g>
</svg>
