<?xml version="1.0"?>
<svg width="100" height="45" xmlns="http://www.w3.org/2000/svg" xmlns:svg="http://www.w3.org/2000/svg" xmlns:xlink="http://www.w3.org/1999/xlink">
 <metadata id="metadata4270">image/svg+xml</metadata>
 <defs>
  <symbol id="svg_13" xmlns="http://www.w3.org/2000/svg" xmlns:svg="http://www.w3.org/2000/svg">
   <metadata id="svg_12">image/svg+xml</metadata>
   <g id="svg_3">
    <path fill="#000000" fill-rule="nonzero" id="svg_11" d="m391.57555,224.85165c-9.78316,0 -17.65254,6.79591 -17.65254,15.24453l0,175.13862c0,8.44863 7.86938,15.24453 17.65254,15.24453l148.46868,0c9.78316,0 17.65254,-6.7959 17.65254,-15.24453l0,-175.13862c0,-8.44862 -7.86938,-15.24453 -17.65254,-15.24453l-148.46868,0zm9.14182,13.72503l128.96102,0c8.49808,0 15.3384,5.90723 15.3384,13.24606l0,152.11493c0,7.33884 -6.84032,13.24606 -15.3384,13.24606l-128.96102,0c-8.49806,0 -15.33838,-5.90722 -15.33838,-13.24606l0,-152.11493c0,-7.33883 6.84032,-13.24606 15.33838,-13.24606z"/>
    <path fill="#000000" fill-rule="nonzero" id="svg_10" d="m412.14824,81.36223l107.46774,0l15.15571,140.53475l-140.53474,0l17.91129,-140.53475z"/>
    <path fill="#000000" fill-rule="nonzero" d="m412.14824,575.45281l107.46774,0l15.15571,-140.53475l-140.53474,0l17.91129,140.53475z" id="svg_9"/>
    <rect fill="#000000" fill-rule="nonzero" ry="6.656909" y="279.59021" x="551.78381" height="21.54221" width="13.313818" id="svg_8"/>
    <rect fill="#000000" fill-rule="nonzero" id="svg_7" width="13.313818" height="21.54221" x="551.78381" y="356.51447" ry="6.656909"/>
    <rect fill="#000000" fill-rule="nonzero" ry="1.607949" y="313.61438" x="458.58704" height="73.965652" width="4.888165" id="svg_6"/>
    <rect fill="#000000" fill-rule="nonzero" transform="matrix(-0.69129326,-0.72257431,0.72257431,-0.69129326,0,0) " id="svg_5" width="4.888165" height="79.882904" x="-556.82631" y="92.283202" ry="1.736585"/>
    <path fill="#000000" fill-rule="nonzero" d="m467.05343,326.7276a6.27619,6.27619 0 1 1 -12.55239,0a6.27619,6.27619 0 1 1 12.55239,0z" id="svg_4"/>
   </g>
  </symbol>
  <pattern height="100" width="100" y="0" x="0" patternUnits="userSpaceOnUse" id="gridpattern">
   <image height="100" width="100" y="0" x="0"/>
  </pattern>
 </defs>
 <!-- &quot;Helvetica Neue&quot; is a trademark of Heidelberger Druckmaschinen AG, which may be registered in certain jurisdictions, exclusivly licensed through Linotype Library GmbH, a wholly owned subsidiary of Heidelberger Druckmaschinen AG. -->
 <g>
  <title>Layer 1</title>
  <rect x="0" y="0.265252" id="rect4248" height="45" width="98.999998" fill="#011010"/>
  <rect id="rect4250" height="38.952645" width="7.032375" fill="#ff0000" y="3.062243" x="0"/>
  <rect y="7.693037" id="rect4252" height="31.176471" width="7.724147" fill="#ff7f00" x="6.760773"/>
  <rect y="1.488834" id="rect4254" height="32.437045" width="9.687712" fill="#F2BB1A" x="14.19002"/>
  <rect y="8.501678" id="rect4256" height="21.657619" width="7.390752" fill="#3BBEB1" x="23.70959"/>
  <rect y="12.62873" id="rect4258" height="21.054187" width="6.270031" fill="#e5862d" x="31.027707"/>
  <g font-size="64.999474px" font-family="HelveticaNeue-Bold" fill="#ffffff" id="text4264"/>
  <use x="0" y="0" transform="matrix(0.0538787879049778,0,0,0.0538787879049778,0,0) " xlink:href="#svg_13" id="svg_14"/>
  <use x="0" y="0" transform="matrix(0.0538787879049778,0,0,0.0538787879049778,0,0) " xlink:href="#svg_13" id="svg_16"/>
  <rect id="svg_19" y="17.179608" height="19.10456" width="6.072185" fill="#7f00ff" x="37.092315"/>
  <rect y="14.418698" height="24.579277" width="6.270031" fill="#0000ff" x="42.89018" id="svg_17"/>
  <rect y="9.256523" height="27.843137" width="7.390752" fill="#007fff" x="49.029567" id="svg_20"/>
  <rect y="9.676324" height="26.19517" width="12.962469" fill="#F2BB1A" x="56.169278" id="svg_21"/>
  <rect y="8.518463" height="28.695081" width="10.953897" fill="#ff7f00" x="66.988772" id="svg_22"/>
  <rect y="11.738054" height="22.640802" width="7.764703" fill="#ff0000" x="75.985757" id="svg_24"/>
  <path id="svg_18" d="m70.93404,11.25206c-0.62384,0 -1.12695,0.50085 -1.12695,1.11797l0,10.30884l-6.82044,2.95592c-0.57081,0.24819 -0.83028,0.90779 -0.57984,1.47349c0.185,0.41924 0.5979,0.66966 1.0322,0.66966c0.15117,0 0.30572,-0.03018 0.45236,-0.09503l7.47473,-3.23988c0.00564,-0.00224 0.01015,-0.00447 0.01466,-0.00671l0.00451,-0.00224c0.01692,-0.0067 0.02595,-0.02236 0.04174,-0.02795c0.11733,-0.05813 0.22675,-0.12633 0.31474,-0.218c0.03835,-0.03801 0.0598,-0.0872 0.08912,-0.1308c0.05415,-0.07155 0.11394,-0.14199 0.14665,-0.22807c0.02707,-0.06708 0.02933,-0.13975 0.04287,-0.2113c0.01466,-0.07155 0.04286,-0.13527 0.04286,-0.20794l0,-11.0411c0,-0.61601 -0.50538,-1.11686 -1.12921,-1.11686zm17.62753,1.90838c0,-4.28407 -3.50272,-7.7565 -7.82669,-7.7565c-2.18623,0 -4.15813,0.88991 -5.57276,2.32203c-1.35032,-0.35663 -2.76269,-0.56457 -4.22695,-0.56457c-1.50487,0 -2.9556,0.218 -4.33976,0.59364c-1.42027,-1.44777 -3.40232,-2.3511 -5.60097,-2.3511c-4.32284,0 -7.82669,3.47243 -7.82669,7.7565c0,2.06266 0.819,3.93191 2.1445,5.32155c-0.49974,1.55399 -0.77274,3.20859 -0.77274,4.92803c0,8.97397 7.34048,16.24862 16.39566,16.24862c9.05517,0 16.39566,-7.27465 16.39566,-16.24862c0,-1.76081 -0.29218,-3.45118 -0.81449,-5.03982c1.26798,-1.37623 2.04523,-3.20076 2.04523,-5.20976zm-17.6264,23.14316c-7.17578,0 -13.01139,-5.78439 -13.01139,-12.89358c0,-7.11031 5.83561,-12.8947 13.01139,-12.8947c7.17578,0 13.01026,5.78327 13.01026,12.8947c0,7.11143 -5.83674,12.89358 -13.01026,12.89358z" stroke-linecap="null" stroke-linejoin="null" stroke-dasharray="null" stroke-width="null" fill="#ffffff"/>
 </g>
</svg>