<?xml version="1.0"?>
<svg width="252" height="45" xmlns="http://www.w3.org/2000/svg" xmlns:svg="http://www.w3.org/2000/svg" xmlns:xlink="http://www.w3.org/1999/xlink">
 <metadata id="metadata4270">image/svg+xml</metadata>
 <defs>
  <symbol id="svg_13" xmlns:svg="http://www.w3.org/2000/svg" xmlns="http://www.w3.org/2000/svg">
   <metadata id="svg_12">image/svg+xml</metadata>
   <g id="svg_3">
    <path d="m391.57555,224.85165c-9.78316,0 -17.65254,6.79591 -17.65254,15.24453l0,175.13862c0,8.44863 7.86938,15.24453 17.65254,15.24453l148.46868,0c9.78316,0 17.65254,-6.7959 17.65254,-15.24453l0,-175.13862c0,-8.44862 -7.86938,-15.24453 -17.65254,-15.24453l-148.46868,0zm9.14182,13.72503l128.96102,0c8.49808,0 15.3384,5.90723 15.3384,13.24606l0,152.11493c0,7.33884 -6.84032,13.24606 -15.3384,13.24606l-128.96102,0c-8.49806,0 -15.33838,-5.90722 -15.33838,-13.24606l0,-152.11493c0,-7.33883 6.84032,-13.24606 15.33838,-13.24606z" id="svg_11" fill-rule="nonzero" fill="#000000"/>
    <path d="m412.14824,81.36223l107.46774,0l15.15571,140.53475l-140.53474,0l17.91129,-140.53475z" id="svg_10" fill-rule="nonzero" fill="#000000"/>
    <path id="svg_9" d="m412.14824,575.45281l107.46774,0l15.15571,-140.53475l-140.53474,0l17.91129,140.53475z" fill-rule="nonzero" fill="#000000"/>
    <rect id="svg_8" width="13.313818" height="21.54221" x="551.78381" y="279.59021" ry="6.656909" fill-rule="nonzero" fill="#000000"/>
    <rect ry="6.656909" y="356.51447" x="551.78381" height="21.54221" width="13.313818" id="svg_7" fill-rule="nonzero" fill="#000000"/>
    <rect id="svg_6" width="4.888165" height="73.965652" x="458.58704" y="313.61438" ry="1.607949" fill-rule="nonzero" fill="#000000"/>
    <rect ry="1.736585" y="92.283202" x="-556.82631" height="79.882904" width="4.888165" id="svg_5" transform="matrix(-0.69129326,-0.72257431,0.72257431,-0.69129326,0,0) " fill-rule="nonzero" fill="#000000"/>
    <path id="svg_4" d="m467.05343,326.7276a6.27619,6.27619 0 1 1 -12.55239,0a6.27619,6.27619 0 1 1 12.55239,0z" fill-rule="nonzero" fill="#000000"/>
   </g>
  </symbol>
 </defs>
 <!-- &quot;Helvetica Neue&quot; is a trademark of Heidelberger Druckmaschinen AG, which may be registered in certain jurisdictions, exclusivly licensed through Linotype Library GmbH, a wholly owned subsidiary of Heidelberger Druckmaschinen AG. -->
 <g>
  <title>Layer 1</title>
  <rect fill="#011010" width="252" height="45" id="rect4248" y="0.265252" x="0"/>
  <rect x="0" y="3.062243" fill="#ff0000" width="7.032375" height="38.952645" id="rect4250"/>
  <rect x="6.760773" fill="#ff7f00" width="7.724147" height="31.176471" id="rect4252" y="7.693037"/>
  <rect x="14.19002" fill="#F2BB1A" width="9.687712" height="32.437045" id="rect4254" y="1.488834"/>
  <rect x="23.70959" fill="#3BBEB1" width="7.390752" height="21.657619" id="rect4256" y="8.501678"/>
  <rect x="31.027707" fill="#e5862d" width="6.270031" height="21.054187" id="rect4258" y="12.62873"/>
  <g id="text4264" fill="#ffffff" font-family="HelveticaNeue-Bold" font-size="64.999474px"/>
  <use id="svg_14" xlink:href="#svg_13" transform="matrix(0.0538787879049778,0,0,0.0538787879049778,0,0) " y="0" x="0"/>
  <use id="svg_16" xlink:href="#svg_13" transform="matrix(0.0538787879049778,0,0,0.0538787879049778,0,0) " y="0" x="0"/>
  <rect x="37.092315" fill="#7f00ff" width="6.072185" height="19.10456" y="17.179608" id="svg_19"/>
  <rect id="svg_17" x="42.89018" fill="#0000ff" width="6.270031" height="24.579277" y="14.418698"/>
  <rect id="svg_20" x="49.029567" fill="#007fff" width="7.390752" height="27.843137" y="9.256523"/>
  <rect id="svg_21" x="56.169278" fill="#F2BB1A" width="12.962469" height="26.19517" y="9.676324"/>
  <rect id="svg_22" x="66.988772" fill="#ff7f00" width="10.953897" height="28.695081" y="8.518463"/>
  <rect id="svg_23" x="84.666206" y="20.36449" fill="#ffffff" width="22.4003" height="7.374672"/>
  <path fill="#ffffff" stroke-width="null" stroke-dasharray="null" stroke-linejoin="null" stroke-linecap="null" d="m155.32844,36.24003l-4.0012,-9.05077c-1.20629,-2.72823 -3.17936,-7.19413 -4.38565,-9.92236l-4.00119,-9.05079c-1.20735,-2.72962 -3.18042,-2.72962 -4.38671,0l-4.00014,9.05079c-1.20629,2.72823 -3.18042,7.19551 -4.38671,9.92236l-4.00014,9.05077c-1.20629,2.73101 -0.21924,4.96258 2.19335,4.96258l24.77291,0c2.4147,0 3.40071,-2.23157 2.19548,-4.96258zm-13.43865,1.40148l-2.3734,0l0,-2.97589l2.3734,0l0,2.97589zm-0.11438,-5.16872l-2.14253,0l-0.21286,-12.73361l2.5492,0l-0.19381,12.73361z" id="svg_25"/>
  <rect id="svg_24" x="75.985757" fill="#ff0000" width="7.764703" height="22.640802" y="11.738054"/>
  <path fill="#ffffff" stroke-width="null" stroke-dasharray="null" stroke-linejoin="null" stroke-linecap="null" d="m70.93404,11.25206c-0.62384,0 -1.12695,0.50085 -1.12695,1.11797l0,10.30884l-6.82044,2.95592c-0.57081,0.24819 -0.83028,0.90779 -0.57984,1.47349c0.185,0.41924 0.5979,0.66966 1.0322,0.66966c0.15117,0 0.30572,-0.03018 0.45236,-0.09503l7.47473,-3.23988c0.00564,-0.00224 0.01015,-0.00447 0.01466,-0.00671l0.00451,-0.00224c0.01692,-0.0067 0.02595,-0.02236 0.04174,-0.02795c0.11733,-0.05813 0.22675,-0.12633 0.31474,-0.218c0.03835,-0.03801 0.0598,-0.0872 0.08912,-0.1308c0.05415,-0.07155 0.11394,-0.14199 0.14665,-0.22807c0.02707,-0.06708 0.02933,-0.13975 0.04287,-0.2113c0.01466,-0.07155 0.04286,-0.13527 0.04286,-0.20794l0,-11.0411c0,-0.61601 -0.50538,-1.11686 -1.12921,-1.11686zm17.62753,1.90838c0,-4.28407 -3.50272,-7.7565 -7.82669,-7.7565c-2.18623,0 -4.15813,0.88991 -5.57276,2.32203c-1.35032,-0.35663 -2.76269,-0.56457 -4.22695,-0.56457c-1.50487,0 -2.9556,0.218 -4.33976,0.59364c-1.42027,-1.44777 -3.40232,-2.3511 -5.60097,-2.3511c-4.32284,0 -7.82669,3.47243 -7.82669,7.7565c0,2.06266 0.819,3.93191 2.1445,5.32155c-0.49974,1.55399 -0.77274,3.20859 -0.77274,4.92803c0,8.97397 7.34048,16.24862 16.39566,16.24862c9.05517,0 16.39566,-7.27465 16.39566,-16.24862c0,-1.76081 -0.29218,-3.45118 -0.81449,-5.03982c1.26798,-1.37623 2.04523,-3.20076 2.04523,-5.20976zm-17.6264,23.14316c-7.17578,0 -13.01139,-5.78439 -13.01139,-12.89358c0,-7.11031 5.83561,-12.8947 13.01139,-12.8947c7.17578,0 13.01026,5.78327 13.01026,12.8947c0,7.11143 -5.83674,12.89358 -13.01026,12.89358z" id="svg_18"/>
  <rect fill="#ffffff" stroke-width="null" stroke-dasharray="null" stroke-linejoin="null" stroke-linecap="null" x="100.522259" y="6.327895" width="8.902078" height="38.278937" id="svg_27"/>
  <rect fill="#ffffff" stroke-width="null" stroke-dasharray="null" stroke-linejoin="null" stroke-linecap="null" x="105.909395" y="14.869964" width="23.803348" height="8.271905" id="svg_28" transform="rotate(-67.19451904296875 117.81106567382812,19.005916595458977) "/>
  <rect fill="#ffffff" stroke-width="null" stroke-dasharray="null" stroke-linejoin="null" stroke-linecap="null" x="105.527007" y="27.467614" width="24.745046" height="8.756117" transform="rotate(25.849008560180664 117.89952850341795,31.84567260742188) " id="svg_29"/>
  <path fill="#ffffff" stroke-width="null" stroke-dasharray="null" stroke-linejoin="null" stroke-linecap="null" d="m179.80845,37.03355l-3.67894,-7.64841c-1.10914,-2.30551 -2.9233,-6.07945 -4.03244,-8.38496l-3.67894,-7.64842c-1.11011,-2.30669 -2.92427,-2.30669 -4.03342,0l-3.67797,7.64842c-1.10914,2.30551 -2.92427,6.08062 -4.03341,8.38496l-3.67797,7.64841c-1.10914,2.30786 -0.20158,4.19366 2.0167,4.19366l22.77774,0c2.22022,0 3.12682,-1.8858 2.01865,-4.19366zm-12.35632,1.18433l-2.18224,0l0,-2.51479l2.18224,0l0,2.51479zm-0.10516,-4.36785l-1.96997,0l-0.19573,-10.76063l2.3439,0l-0.1782,10.76063z" id="svg_30"/>
  <rect stroke="null" fill="#ffffff" stroke-width="null" stroke-dasharray="null" stroke-linejoin="null" stroke-linecap="null" x="176.261929" y="35.551307" width="25.176487" height="5.97397" id="svg_41"/>
  <path fill="#011010" stroke-width="null" stroke-dasharray="null" stroke-linejoin="null" stroke-linecap="null" d="m155.82732,42.5379l10.53412,-22.29228l10.53412,22.29228l-21.06824,0z" id="svg_49"/>
  <path fill="#011010" stroke-width="null" stroke-dasharray="null" stroke-linejoin="null" stroke-linecap="null" d="m129.89911,42.85237l10.83086,-26.44658l10.83086,26.44658l-21.66172,0z" id="svg_50"/>
  <rect x="130.420019" y="30.689515" fill="#ffffff" width="45.537046" height="5.234552" id="svg_51"/>
  <rect id="svg_26" fill="#ffffff" stroke-width="null" stroke-dasharray="null" stroke-linejoin="null" stroke-linecap="null" x="179.490602" y="9.73321" width="6.780064" height="31.117134"/>
  <rect stroke="null" id="svg_31" fill="#ffffff" stroke-width="null" stroke-dasharray="null" stroke-linejoin="null" stroke-linecap="null" x="179.443584" y="8.644315" width="21.197705" height="5.178214"/>
  <rect stroke="null" id="svg_32" fill="#ffffff" stroke-width="null" stroke-dasharray="null" stroke-linejoin="null" stroke-linecap="null" x="180.504605" y="20.845903" width="9.261365" height="5.443466"/>
  <rect stroke="null" id="svg_33" fill="#ffffff" stroke-width="null" stroke-dasharray="null" stroke-linejoin="null" stroke-linecap="null" x="191.512555" y="20.845903" width="2.630064" height="5.443466"/>
  <rect id="svg_34" stroke="null" fill="#ffffff" stroke-width="null" stroke-dasharray="null" stroke-linejoin="null" stroke-linecap="null" x="195.889218" y="20.845903" width="2.630064" height="5.443466"/>
 </g>
</svg>